HIERARCHY
ROOT Hips
{
	OFFSET 0.000000 0.000000 0.000000 
	CHANNELS 6 Xposition Yposition Zposition Yrotation Zrotation Xrotation 
	JOINT Lumbar
	{
		OFFSET 0.000000 0.000000 0.000000 
		CHANNELS 3 Zrotation Xrotation Yrotation
		JOINT Neck
		{
			OFFSET 0.000000 0.445665 0.000000 
			CHANNELS 3 Zrotation Xrotation Yrotation
			End Site
			{
				OFFSET 0.000000 0.227535 0.000000 
			}
		}
		JOINT RightShoulder
		{
			OFFSET 0.019635 0.377685 0.194865 
			CHANNELS 3 Zrotation Xrotation Yrotation
			JOINT RightElbow
			{
				OFFSET 0.000000 -0.243375 0.000000 
				CHANNELS 2 Zrotation Yrotation
				JOINT RightWrist
				{
					OFFSET 0.000000 -0.264825 0.000000 
					CHANNELS 2 Zrotation Xrotation
					End Site
					{
						OFFSET 0.006600 -0.176220 0.000990 
					}
				}
			}
		}
		JOINT LeftShoulder
		{
			OFFSET 0.019635 0.377685 -0.194865 
			CHANNELS 3 Zrotation Xrotation Yrotation
			JOINT LeftElbow
			{
				OFFSET 0.000000 -0.243375 0.000000 
				CHANNELS 2 Zrotation Yrotation
				JOINT LeftWrist
				{
					OFFSET 0.000000 -0.264825 0.000000 
					CHANNELS 2 Zrotation Xrotation
					End Site
					{
						OFFSET 0.006600 -0.176220 -0.000990 
					}
				}
			}
		}
	}
	JOINT RightHip
	{
		OFFSET 0.052140 -0.069960 0.075570 
		CHANNELS 3 Zrotation Xrotation Yrotation
		JOINT RightKnee
		{
			OFFSET 0.000000 -0.402270 0.000000 
			CHANNELS 1 Zrotation
			JOINT RightAnkle
			{
				OFFSET 0.000000 -0.404085 0.000000 
				CHANNELS 3 Zrotation Xrotation Yrotation
				End Site
				{
					OFFSET 0.204105 -0.089430 0.008415 
				}
			}
		}
	}
	JOINT LeftHip
	{
		OFFSET 0.052140 -0.069960 -0.075570 
		CHANNELS 3 Zrotation Xrotation Yrotation
		JOINT LeftKnee
		{
			OFFSET 0.000000 -0.402270 0.000000 
			CHANNELS 1 Zrotation
			JOINT LeftAnkle
			{
				OFFSET 0.000000 -0.404085 0.000000 
				CHANNELS 3 Zrotation Xrotation Yrotation
				End Site
				{
					OFFSET 0.204105 -0.089430 -0.008415 
				}
			}
		}
	}
}
MOTION
Frames: 22
Frame Time: 0.02
-0.00023 -2e-05 3e-05 23.25387 -25.36265 -7.47504 43.95825 3.07643 -3.83281 -8.17392 -2.5526 -1.00039 75.91173 -98.85401 55.63573 5.78632 105.59855 12.44228 3.00737 58.36928 99.71471 -55.63642 6.16877 -96.19101 10.93178 -0.80536 40.82069 -3.21837 -7.11412 -22.26733 -6.65912 -2.40247 -3.41533 44.41248 9.47255 2.11337 -27.49625 -6.45348 1.81742 3.11976
-0.00012 0 -3e-05 23.25505 -25.37045 -7.47535 43.95933 3.07893 -3.8244 -8.18475 -2.54824 -1.00088 75.88033 -98.84919 55.63541 5.78644 105.5666 12.44859 3.01712 58.32198 99.72041 -55.63595 6.179 -96.21872 10.93405 -0.79512 40.81557 -3.26141 -7.33208 -22.26663 -6.65663 -2.37978 -3.40095 44.41117 9.51299 2.2834 -27.49473 -6.45566 1.80047 3.11075
-1e-05 2e-05 -8e-05 23.25623 -25.37823 -7.47567 43.96041 3.08142 -3.81601 -8.19557 -2.54388 -1.00137 75.84898 -98.84437 55.63509 5.78655 105.53473 12.45491 3.02685 58.27487 99.72608 -55.63548 6.1892 -96.24635 10.93636 -0.7849 40.81044 -3.30434 -7.54948 -22.26594 -6.65414 -2.35715 -3.38662 44.40985 9.55332 2.45294 -27.49322 -6.45782 1.78358 3.10178
9e-05 5e-05 -0.00014 23.25741 -25.38601 -7.47599 43.96149 3.08391 -3.80762 -8.20637 -2.53952 -1.00186 75.81766 -98.83956 55.63476 5.78667 105.50287 12.4612 3.03657 58.22771 99.73177 -55.63502 6.1994 -96.27397 10.93863 -0.77469 40.80533 -3.34726 -7.76679 -22.26524 -6.65166 -2.33453 -3.37229 44.40855 9.59363 2.62245 -27.49171 -6.45999 1.76669 3.09281
0.0002 7e-05 -0.00019 23.25858 -25.39382 -7.47631 43.96256 3.08641 -3.7992 -8.21715 -2.53517 -1.00235 75.78631 -98.83474 55.63444 5.78679 105.47095 12.46746 3.04631 58.18038 99.73749 -55.63455 6.20964 -96.30167 10.94083 -0.76445 40.80023 -3.39027 -7.98462 -22.26454 -6.64917 -2.31187 -3.35793 44.40727 9.63407 2.79244 -27.4902 -6.46216 1.74976 3.08381
0.00031 9e-05 -0.00025 23.2598 -25.40152 -7.47661 43.96367 3.08886 -3.79088 -8.22807 -2.53079 -1.00284 75.75497 -98.82991 55.63412 5.7869 105.43918 12.47393 3.05602 58.13372 99.74304 -55.63408 6.21974 -96.32915 10.9434 -0.75429 40.79504 -3.43303 -8.20109 -22.26387 -6.64668 -2.28928 -3.34366 44.40588 9.67415 2.96104 -27.48869 -6.46431 1.73294 3.07488
0.00042 0.00012 -0.0003 23.26092 -25.40943 -7.47695 43.96469 3.09141 -3.78238 -8.2387 -2.52647 -1.00333 75.72363 -98.82512 55.63379 5.78702 105.40713 12.47996 3.06577 58.08572 99.74895 -55.63361 6.23012 -96.35704 10.94521 -0.74397 40.79003 -3.47625 -8.42006 -22.26315 -6.6442 -2.26658 -3.32922 44.40471 9.7149 3.13222 -27.48718 -6.46651 1.71591 3.06582
0.00052 0.00014 -0.00036 23.26213 -25.41715 -7.47726 43.9658 3.09387 -3.77404 -8.24959 -2.52209 -1.00382 75.69233 -98.8203 55.63347 5.78714 105.37535 12.48639 3.07549 58.03901 99.75452 -55.63314 6.24023 -96.38457 10.94772 -0.73381 40.78486 -3.51905 -8.63674 -22.26246 -6.64171 -2.24398 -3.31494 44.40334 9.75504 3.30106 -27.48567 -6.46866 1.69908 3.05689
0.00063 0.00016 -0.00041 23.26346 -25.42464 -7.4775 43.96702 3.09623 -3.7659 -8.26085 -2.51764 -1.00431 75.6609 -98.8154 55.63316 5.78725 105.34385 12.49334 3.08515 57.99368 99.75967 -55.63268 6.25006 -96.41158 10.95112 -0.72381 40.77946 -3.56136 -8.85065 -22.26183 -6.63922 -2.22149 -3.30084 44.40171 9.79442 3.467 -27.48416 -6.47076 1.68249 3.0481
0.00074 0.00019 -0.00047 23.2641 -25.43343 -7.47807 43.96761 3.0992 -3.75661 -8.27014 -2.51359 -1.00479 75.62965 -98.81082 55.63278 5.78739 105.31059 12.49741 3.09511 57.93982 99.76722 -55.63217 6.26162 -96.44134 10.9495 -0.7128 40.77532 -3.60656 -9.08062 -22.26094 -6.63675 -2.19832 -3.28565 44.40151 9.83812 3.64949 -27.48262 -6.47316 1.66447 3.03845
0.00084 0.00021 -0.00052 23.26619 -25.43951 -7.47796 43.96952 3.10087 -3.74976 -8.28348 -2.50872 -1.00529 75.5984 -98.80566 55.63256 5.78747 105.28113 12.50747 3.10447 57.90432 99.76973 -55.63178 6.26948 -96.46545 10.9584 -0.70395 40.76855 -3.64561 -9.27657 -22.26057 -6.63424 -2.17664 -3.27278 44.39834 9.87275 3.79711 -27.48117 -6.47494 1.64949 3.03062
0.00093 0.00022 -0.00057 23.27247 -25.43779 -7.47574 43.97521 3.09886 -3.74941 -8.30882 -2.5016 -1.00586 75.56389 -98.79815 55.63278 5.78739 105.26146 12.53488 3.11179 57.91673 99.75805 -55.6317 6.26747 -96.47276 10.99701 -0.70082 40.75413 -3.66799 -9.37937 -22.26183 -6.63154 -2.15858 -3.26621 44.38652 9.88195 3.84764 -27.47988 -6.475 1.64285 3.02781
0.00101 0.00023 -0.00062 23.28016 -25.43341 -7.47286 43.98221 3.09557 -3.75155 -8.33805 -2.49367 -1.00645 75.52995 -98.7902 55.63316 5.78725 105.2457 12.56812 3.11857 57.94808 99.74137 -55.63175 6.26168 -96.47461 11.04598 -0.69991 40.73715 -3.68416 -9.44793 -22.26359 -6.6288 -2.1421 -3.26199 44.37181 9.88211 3.86335 -27.4787 -6.47445 1.63927 3.02682
0.00109 0.00024 -0.00066 23.28708 -25.43048 -7.47044 43.98853 3.09295 -3.75267 -8.3649 -2.48612 -1.00702 75.49791 -98.78296 55.63346 5.78714 105.22862 12.59814 3.12586 57.97234 99.7272 -55.63174 6.25744 -96.47981 11.08971 -0.69809 40.72159 -3.70302 -9.53205 -22.26501 -6.62612 -2.12521 -3.25673 44.35873 9.88677 3.89597 -27.47753 -6.47419 1.63427 3.02496
0.00117 0.00024 -0.00071 23.29459 -25.42653 -7.46737 43.99522 3.08996 -3.75331 -8.39436 -2.47851 -1.00764 75.45685 -98.7736 55.63381 5.78701 105.20972 12.6307 3.13207 57.99008 99.71199 -55.63174 6.25394 -96.4814 11.13585 -0.6958 40.7049 -3.72241 -9.61626 -22.2669 -6.62324 -2.10704 -3.25132 44.34427 9.88985 3.92416 -27.4761 -6.47388 1.62935 3.02326
0.00125 0.00025 -0.00076 23.30113 -25.42409 -7.46547 44.00143 3.08743 -3.75552 -8.4193 -2.47085 -1.00817 75.4346 -98.76849 55.63409 5.78691 105.1954 12.65919 3.14037 58.02608 99.6978 -55.63174 6.24796 -96.48916 11.17925 -0.69508 40.69002 -3.73923 -9.69201 -22.26794 -6.62078 -2.0919 -3.2468 44.33203 9.894 3.95305 -27.47523 -6.47352 1.62503 3.02169
0.00134 0.00026 -0.00081 23.30533 -25.42632 -7.46704 44.00595 3.08649 -3.76158 -8.43094 -2.4632 -1.00845 75.46539 -98.77581 55.63414 5.7869 105.19409 12.67629 3.15485 58.10619 99.68743 -55.63174 6.2362 -96.51586 11.21413 -0.69756 40.68036 -3.75055 -9.75407 -22.26643 -6.61945 -2.08476 -3.24413 44.32647 9.90408 3.99492 -27.47588 -6.47319 1.62146 3.01996
0.00142 0.00027 -0.00087 23.30839 -25.43019 -7.46978 44.00992 3.08607 -3.76909 -8.43787 -2.45555 -1.00865 75.515 -98.7873 55.63411 5.78691 105.19707 12.68884 3.17142 58.20442 99.67828 -55.63174 6.22202 -96.54889 11.24559 -0.70164 40.6727 -3.75947 -9.80849 -22.26406 -6.61853 -2.0806 -3.24228 44.32326 9.91542 4.03824 -27.47709 -6.47283 1.61842 3.01833
0.0015 0.00028 -0.00093 23.31154 -25.43341 -7.47189 44.01414 3.08541 -3.77585 -8.44686 -2.44792 -1.00889 75.55497 -98.7965 55.63412 5.7869 105.19718 12.70262 3.18683 58.29533 99.66878 -55.63174 6.20886 -96.57863 11.27755 -0.70535 40.66438 -3.76946 -9.86569 -22.26212 -6.61743 -2.07505 -3.24006 44.31907 9.92569 4.07924 -27.47802 -6.47248 1.61525 3.01673
0.00158 0.00029 -0.00098 23.31655 -25.43613 -7.4744 44.01842 3.08471 -3.78307 -8.45631 -2.44015 -1.00913 75.59893 -98.80739 55.63412 5.7869 105.20109 12.72017 3.20304 58.38268 99.65839 -55.63173 6.19595 -96.60978 11.31432 -0.70763 40.65487 -3.77938 -9.92499 -22.26002 -6.61631 -2.06969 -3.23789 44.31444 9.93776 4.12598 -27.47903 -6.47215 1.61173 3.01488
0.00166 0.0003 -0.00104 23.31738 -25.44033 -7.47635 44.02243 3.08424 -3.78964 -8.46366 -2.43269 -1.00934 75.63982 -98.81572 55.63411 5.78691 105.19835 12.72869 3.21818 58.48194 99.65003 -55.63173 6.18196 -96.63972 11.34014 -0.71323 40.64839 -3.7889 -9.97811 -22.25804 -6.61533 -2.06464 -3.23581 44.31132 9.94649 4.16162 -27.48003 -6.47177 1.60903 3.01354
0.00171 0.00031 -0.00111 23.3072 -25.44822 -7.4766 44.02585 3.08413 -3.79434 -8.46597 -2.42598 -1.00955 75.66116 -98.81622 55.63405 5.78693 105.17362 12.71355 3.22911 58.60599 99.6484 -55.63173 6.16586 -96.6636 11.3365 -0.72778 40.64941 -3.79851 -10.01984 -22.25657 -6.61462 -2.05949 -3.23369 44.31174 9.94578 4.16598 -27.48088 -6.47128 1.60843 3.01352
